<svg width="16" height="28" viewBox="0 0 16 28" fill="none" xmlns="http://www.w3.org/2000/svg">
<path d="M12.3379 5.40077H15.2697C15.5933 5.40077 15.856 5.13808 15.856 4.81442V0.86416C15.856 0.556911 15.6197 0.301261 15.3136 0.279566C14.3807 0.213308 12.5584 0.123596 11.2479 0.123596C7.64707 0.123596 5.30166 2.28137 5.30166 6.2029V10.0916H1.19719C0.873526 10.0916 0.61084 10.3543 0.61084 10.6779V14.7824C0.61084 15.1061 0.873526 15.3688 1.19719 15.3688H5.30166V26.5095C5.30166 26.8331 5.56435 27.0958 5.88801 27.0958H9.99248C10.3161 27.0958 10.5788 26.8331 10.5788 26.5095V15.3688H14.8135C15.1125 15.3688 15.3635 15.1442 15.3963 14.8469L15.8525 10.7424C15.8912 10.3953 15.6191 10.0916 15.2697 10.0916H10.5788V7.15983C10.5788 6.18824 11.3663 5.40077 12.3379 5.40077Z" fill="white"/>
</svg>
