<svg width="28" height="28" viewBox="0 0 28 28" fill="none" xmlns="http://www.w3.org/2000/svg">
<path fill-rule="evenodd" clip-rule="evenodd" d="M7.7406 0.479647H19.9451C24.0718 0.479647 27.4033 3.81113 27.4033 7.93793V20.1424C27.4033 24.2692 24.0718 27.6007 19.9451 27.6007H7.7406C3.61381 27.6007 0.28232 24.2692 0.28232 20.1424V7.93793C0.28232 3.81113 3.61381 0.479647 7.7406 0.479647ZM21.0203 4.94498C21.2746 4.69067 21.6195 4.5478 21.9791 4.5478C22.3388 4.5478 22.6837 4.69067 22.938 4.94498C23.1923 5.19929 23.3352 5.5442 23.3352 5.90385C23.3352 6.2635 23.1923 6.60841 22.938 6.86272C22.6837 7.11703 22.3388 7.2599 21.9791 7.2599C21.6195 7.2599 21.2746 7.11703 21.0203 6.86272C20.7659 6.60841 20.6231 6.2635 20.6231 5.90385C20.6231 5.5442 20.7659 5.19929 21.0203 4.94498ZM6.38455 14.0402C6.38455 9.92909 9.73176 6.58187 13.8428 6.58187C17.9539 6.58187 21.3011 9.92909 21.3011 14.0402C21.3011 18.1512 17.9539 21.4984 13.8428 21.4984C9.73176 21.4984 6.38455 18.1512 6.38455 14.0402Z" fill="white"/>
<path d="M13.8428 7.93793C17.221 7.93793 19.9451 10.662 19.9451 14.0402C19.9451 17.4184 17.221 20.1424 13.8428 20.1424C10.4646 20.1424 7.7406 17.4184 7.7406 14.0402C7.7406 10.662 10.4646 7.93793 13.8428 7.93793Z" fill="white"/>
</svg>
