<svg width="26" height="26" viewBox="0 0 26 26" fill="none" xmlns="http://www.w3.org/2000/svg">
<path d="M6.36446 4.11589C6.58844 2.9279 5.86834 1.45599 4.79233 0.902259C3.41597 0.193871 1.59502 0.697173 0.825086 1.9988C0.41647 2.6892 0.391639 4.07101 0.774579 4.79351C1.43201 6.03412 3.0881 6.6603 4.49182 6.19919C5.27307 5.94267 6.21834 4.89101 6.36446 4.11589ZM5.95854 25.1848V16.9477V8.71066H3.42475H0.890964V16.9477V25.1848H3.42475H5.95854ZM22.3042 8.88818C23.0746 9.26557 23.5368 9.63371 23.9478 10.1967C25.1341 11.8223 25.3812 13.5712 25.3829 20.3518L25.3843 25.1848H22.7748H20.1653L20.1143 19.8475C20.0664 14.8365 20.0424 14.4742 19.7197 13.9219C18.9251 12.5612 16.6788 12.3242 15.4456 13.4708C14.5604 14.2935 14.5091 14.6328 14.4413 20.104L14.3783 25.1934L11.8155 25.1471L9.25247 25.1007L9.20855 16.9057L9.1648 8.71066H11.6157H14.0667L14.0701 9.84536L14.0733 10.9801L14.6869 10.2515C15.9459 8.75705 17.5038 8.1581 19.8032 8.28452C20.9616 8.34823 21.4353 8.46254 22.3042 8.88818Z" fill="white"/>
<path d="M6.36446 4.11589C6.58844 2.9279 5.86834 1.45599 4.79233 0.902259C3.41597 0.193871 1.59502 0.697173 0.825086 1.9988C0.41647 2.6892 0.391639 4.07101 0.774579 4.79351C1.43201 6.03412 3.0881 6.6603 4.49182 6.19919C5.27307 5.94267 6.21834 4.89101 6.36446 4.11589ZM5.95854 25.1848V16.9477V8.71066H3.42475H0.890964V16.9477V25.1848H3.42475H5.95854ZM22.3042 8.88818C23.0746 9.26557 23.5368 9.63371 23.9478 10.1967C25.1341 11.8223 25.3812 13.5712 25.3829 20.3518L25.3843 25.1848H22.7748H20.1653L20.1143 19.8475C20.0664 14.8365 20.0424 14.4742 19.7197 13.9219C18.9251 12.5612 16.6788 12.3242 15.4456 13.4708C14.5604 14.2935 14.5091 14.6328 14.4413 20.104L14.3783 25.1934L11.8155 25.1471L9.25247 25.1007L9.20855 16.9057L9.1648 8.71066H11.6157H14.0667L14.0701 9.84536L14.0733 10.9801L14.6869 10.2515C15.9459 8.75705 17.5038 8.1581 19.8032 8.28452C20.9616 8.34823 21.4353 8.46254 22.3042 8.88818Z" stroke="black"/>
</svg>
