<svg width="29" height="25" viewBox="0 0 29 25" fill="none" xmlns="http://www.w3.org/2000/svg">
<path d="M25.956 23.0585L25.9564 23.0588L27.1723 23.6759L25.956 23.0585ZM25.956 23.0585L21.0032 20.551L28.0106 9.01992V23.4363C28.0106 23.6186 27.9582 23.7045 27.9221 23.7419M25.956 23.0585L27.9221 23.7419M27.9221 23.7419C27.8874 23.7779 27.82 23.8193 27.6854 23.8193M27.9221 23.7419L27.6854 23.8193M27.6854 23.8193C27.5581 23.8193 27.3831 23.7822 27.1732 23.6764L27.6854 23.8193ZM1.26283 20.0941L1.26271 20.0941C1.14968 20.0369 1.01682 19.9132 0.910542 19.739C0.80441 19.5651 0.753767 19.3882 0.753767 19.2577V1.0558C0.753767 0.899866 0.794909 0.83244 0.810764 0.813443C0.818468 0.804212 0.82443 0.800547 0.82942 0.798285C0.834817 0.795838 0.848151 0.791035 0.873988 0.791035C0.914632 0.791035 0.982 0.802091 1.07038 0.847053L1.32742 0.978198L1.43447 1.03282H1.43791L9.17271 4.94927V23.4363C9.17271 23.6503 9.11569 23.7662 9.07159 23.8191C9.03422 23.8639 8.98382 23.8929 8.89744 23.8929C8.82977 23.8929 8.72779 23.8737 8.59395 23.807C8.59357 23.8068 8.59319 23.8066 8.59281 23.8064L1.26283 20.0941ZM19.6512 0.717226L27.8032 4.84478L19.5345 18.4537L19.5342 18.4541L19.1326 19.1137L14.0425 9.1451L18.5675 1.69938L18.5676 1.69917L19.0614 0.887522C19.0614 0.887474 19.0615 0.887425 19.0615 0.887376C19.0615 0.887355 19.0615 0.887334 19.0615 0.887312C19.14 0.758671 19.2945 0.672773 19.4622 0.672773C19.4934 0.672773 19.5275 0.677196 19.5605 0.686306L19.5715 0.689344L19.5827 0.691877C19.6007 0.695962 19.6229 0.703187 19.6502 0.716739C19.6506 0.7169 19.6509 0.717063 19.6512 0.717226ZM11.8512 15.9181L11.5183 15.7481V9.35837L15.9174 17.9768L11.8528 15.9189L11.8512 15.9181Z" fill="white" stroke="white"/>
</svg>
